<svg id="Warstwa_1" data-name="Warstwa 1" xmlns="http://www.w3.org/2000/svg" width="1920" height="1080" viewBox="0 0 1920 1080"><path d="M696.9761,597.9382v-61.186q0-4.4443-.0768-8.7418a54.6443,54.6443,0,0,0-.8408-8.585l22.8455-2.7627-.46,14.26A30.4517,30.4517,0,0,1,730.1783,520.42a32.7535,32.7535,0,0,1,14.9478-3.6035q17.7923,0,23.3093,15.1814a40.4759,40.4759,0,0,1,12.8825-11.1942,32.6853,32.6853,0,0,1,15.7953-3.9872q12.4221,0,19.0919,7.8209,6.6714,7.8226,6.67,23.4628v27.907q0,5.22.1535,10.8139.15,5.6.6139,11.1174H800.9469V551.32q0-15.79-12.422-15.7954a22.676,22.676,0,0,0-9.0488,1.9186,28.57,28.57,0,0,0-8.7385,6.2093c.1,1.4347.1535,2.8628.1535,4.2942v28.06q0,5.22.23,10.8139.23,5.6.6874,11.1174H749.1133V551.32q0-15.79-12.4187-15.7954a23.0179,23.0179,0,0,0-9.2023,1.9186,26.0176,26.0176,0,0,0-8.5883,6.3628v32.2012q0,5.22.1535,10.8139.15,5.6.7674,11.1174Z" style="fill:#2b2d6e"/><path d="M875.3184,533.5307a16.0729,16.0729,0,0,0-10.2733,3.5268q-4.4493,3.5285-5.8257,12.2685l28.6745-.1534q0-15.64-12.5755-15.6419m9.3558,66.2476q-14.264,0-24.9175-4.2174a33.762,33.762,0,0,1-16.5628-13.4931q-5.9058-9.279-5.9057-24.6139,0-13.9534,5.2918-22.9255a33.5261,33.5261,0,0,1,14.03-13.34,41.937,41.937,0,0,1,19.0152-4.3743,31.6658,31.6658,0,0,1,17.1,4.451,28.69,28.69,0,0,1,10.8872,12.4187,42.7645,42.7645,0,0,1,3.757,18.4045v4.828q0,2.993-.1535,5.2918H859.0626q1.3814,11.196,8.2814,15.7954,6.9017,4.5994,19.1719,4.6011a66.1772,66.1772,0,0,0,9.8129-.6907,43.6652,43.6652,0,0,0,8.7385-2.2255l-1.5315,17.7906a60.8809,60.8809,0,0,1-8.7419,1.685,81.9375,81.9375,0,0,1-10.12.6139" style="fill:#2b2d6e"/><path d="M939.11,558.5283q0,12.417,4.8313,17.48A15.9627,15.9627,0,0,0,955.98,581.07a20.7426,20.7426,0,0,0,8.665-1.9152,25.5062,25.5062,0,0,0,8.0479-6.0592V535.833a33.4952,33.4952,0,0,0-11.6514-2.1488q-9.97,0-15.9521,5.829-5.9759,5.8306-5.9791,19.0151m8.5883,41.25a28.4666,28.4666,0,0,1-15.3349-4.2941,29.97,29.97,0,0,1-11.0407-12.8792q-4.1391-8.5884-4.1407-21.6243,0-15.18,5.135-24.9943,5.14-9.8145,13.5732-14.4907a36.416,36.416,0,0,1,17.944-4.6812q11.346,0,18.8584,4.2975V499.0273q0-4.4444-.23-8.0479t-.6873-7.287l22.8488-2.9128v95.8429a81.8558,81.8558,0,0,0,.7641,11.8082,49.517,49.517,0,0,0,2.3022,9.5058H976.9867a50.6522,50.6522,0,0,1-1.8385-5.7489,40.968,40.968,0,0,1-1.2278-6.8233,28.5455,28.5455,0,0,1-11.1175,10.6571,31.3485,31.3485,0,0,1-15.1046,3.7569" style="fill:#2b2d6e"/><path d="M1023.298,597.9382V535.9848h-16.2558v-.7674l16.2558-17.1734v-4.4476q0-16.2509,8.665-24.9175,8.6585-8.6634,24.6106-8.6651a61.8145,61.8145,0,0,1,7.207.3837,40.3228,40.3228,0,0,1,5.9824,1.1478l.6106,17.1767a24.4138,24.4138,0,0,0-5.5187-1.3814,43.6046,43.6046,0,0,0-5.0616-.3069q-7.362,0-10.8872,3.6034-3.5285,3.6086-3.5267,12.3454v6.2894h21.7745l.7673,17.6338q-11.5011-.921-22.5418-.9209v40.0221q0,5.22.23,10.8139.23,5.6.8441,11.1174Z" style="fill:#2b2d6e"/><path d="M1113.0057,533.5307a16.0732,16.0732,0,0,0-10.2734,3.5268q-4.4491,3.5285-5.8289,12.2685l28.6778-.1534q0-15.64-12.5755-15.6419m9.3557,66.2476q-14.2638,0-24.9175-4.2174a33.7617,33.7617,0,0,1-16.5627-13.4931q-5.9058-9.279-5.9058-24.6139,0-13.9534,5.2918-22.9255a33.5263,33.5263,0,0,1,14.03-13.34,41.9363,41.9363,0,0,1,19.0151-4.3743,31.6462,31.6462,0,0,1,17.0966,4.451A28.6764,28.6764,0,0,1,1141.3,533.6842a42.766,42.766,0,0,1,3.7569,18.4045v4.828q0,2.993-.1534,5.2918h-48.15q1.3764,11.196,8.2781,15.7954t19.1719,4.6011a66.1768,66.1768,0,0,0,9.8128-.6907,43.6635,43.6635,0,0,0,8.7385-2.2255l-1.5314,17.7906a60.8863,60.8863,0,0,1-8.7419,1.685,81.94,81.94,0,0,1-10.12.6139" style="fill:#2b2d6e"/><path d="M1160.2365,597.9382V499.3359q0-4.2942-.23-8.1279a72.4831,72.4831,0,0,0-.8442-7.514l23.0023-2.7626v96.9173q0,5.215.1535,10.2.15,4.98.7674,9.89Z" style="fill:#2b2d6e"/><path d="M1203.1738,597.9382V499.3359q0-4.2942-.23-8.1279a73.37,73.37,0,0,0-.8409-7.514l23.0024-2.7626v96.9173q0,5.215.1534,10.2.1452,4.98.7641,9.89Z" style="fill:#2b2d6e"/><path d="M1281.69,581.9911a18.1841,18.1841,0,0,0,13.4163-5.2918q5.29-5.29,5.2918-16.793,0-13.1828-5.4452-19.2453a17.68,17.68,0,0,0-13.7267-6.0559,18.2437,18.2437,0,0,0-13.34,5.2885q-5.37,5.29-5.3652,16.7929,0,13.0377,5.442,19.1686a17.5614,17.5614,0,0,0,13.7266,6.136m-1.2278,17.7872a43.3177,43.3177,0,0,1-20.32-4.6778,34.18,34.18,0,0,1-14.1837-13.9536q-5.2151-9.2739-5.2151-22.7721,0-13.9535,5.829-23.1558a36.8634,36.8634,0,0,1,15.3349-13.8,46.5067,46.5067,0,0,1,20.55-4.6045,42.808,42.808,0,0,1,20.24,4.6812,34.4341,34.4341,0,0,1,14.11,13.8768q5.21,9.204,5.2117,22.8488,0,13.9536-5.7489,23.1558a36.5552,36.5552,0,0,1-15.1847,13.8034,46.41,46.41,0,0,1-20.6233,4.5978" style="fill:#2b2d6e"/><path d="M1348.0881,597.9382a42.1817,42.1817,0,0,0-.5372-4.2942,32.073,32.073,0,0,0-1.1511-4.4476L1327.081,518.658H1349.93q.3054,3.8337.8409,7.13.5355,3.2982,1.1511,6.3629l10.8872,46.9255,11.6547-47.386L1371.09,518.658H1394.4l14.5675,60.4186,10.58-46.9255a60.9936,60.9936,0,0,0,1.2278-6.3629q.4605-3.2982.9209-7.13h21.7745l-19.3221,70.5384q-.6156,2.3022-.9976,4.3709-.3854,2.072-.6907,4.3709h-26.836c-.1-1.428-.23-2.8361-.38-4.2174a35.0042,35.0042,0,0,0-.8443-4.5244l-9.6627-36.035-9.1989,36.035a29.3322,29.3322,0,0,0-.8441,4.4476q-.23,2.1522-.5372,4.2942Z" style="fill:#2b2d6e"/><path d="M1476.4376,599.7783q-6.4413,0-12.8058-.6139a90.9539,90.9539,0,0,1-11.1174-1.685l-.9176-19.0151a65.0072,65.0072,0,0,0,11.4978,2.8361,77.8837,77.8837,0,0,0,11.5012.8442q8.2831,0,11.1175-2.0721a6.1625,6.1625,0,0,0,2.8394-5.1349,6.7234,6.7234,0,0,0-1.9185-4.6812q-1.9219-2.067-7.7442-4.2141l-7.514-3.0663q-11.1958-4.4495-15.7953-10.1232a20.9762,20.9762,0,0,1-4.6011-13.6466q0-11.0406,8.5882-16.7162,8.5884-5.67,24.9976-5.6755a85.8106,85.8106,0,0,1,10.2734.694,87.28,87.28,0,0,1,10.58,1.9152l1.3813,19.4756a66.689,66.689,0,0,0-11.8081-3.2966,62.22,62.22,0,0,0-10.7337-.9976q-6.5964,0-9.279,1.6116a4.7955,4.7955,0,0,0-2.6826,4.2141,5.8887,5.8887,0,0,0,1.6849,4.2207q1.6867,1.7618,6.9034,3.91l7.8209,3.22a51.2863,51.2863,0,0,1,13.1862,7.36,21.8165,21.8165,0,0,1,6.4429,8.2781,25.5023,25.5023,0,0,1,1.8385,9.8162q0,11.6562-8.5116,17.0965-8.5083,5.4453-25.2245,5.4453" style="fill:#2b2d6e"/><path d="M608.6574,602.187l-71.436-124.374h26.052a22.1317,22.1317,0,0,1,19.1919,11.1108l38.3872,66.8215a22.1272,22.1272,0,0,1,.9643,20.1695Z" style="fill:#9ba0ce"/><polygon points="566.586 602.187 608.653 602.187 587.733 565.752 566.586 602.187" style="fill:#5a63ab"/><path d="M529.2574,602.187,476.87,510.9752a22.1356,22.1356,0,0,1,19.1953-33.1622h.6206l44.7667,77.9323a22.1272,22.1272,0,0,1,.9643,20.1695Z" style="fill:#5a63ab"/><path d="M425.2535,602.187l71.4359-124.374H470.6375a22.1318,22.1318,0,0,0-19.192,11.1108l-38.3872,66.8215a22.1275,22.1275,0,0,0-.9643,20.1695Z" style="fill:#9ba0ce"/><polygon points="425.256 602.187 467.327 602.187 446.18 565.752 425.256 602.187" style="fill:#5a63ab"/></svg>